<svg width="400" height="182" viewBox="0 0 400 182" fill="none" xmlns="http://www.w3.org/2000/svg">
<g filter="url(#filter0_dd_198_10897)">
<path d="M103.331 122.185L103.305 122.17C98.5658 119.537 94.7207 115.874 91.9394 111.238L91.8945 111.163L91.851 111.088C91.4802 110.441 91.1362 109.786 90.8186 109.121L88.3952 116.296C86.5722 121.693 81.51 125.326 75.8131 125.326H74.6351C69.3171 125.326 64.5118 122.154 62.4225 117.263L61.8326 115.883L61.353 117.059C59.3151 122.058 54.4537 125.326 49.0551 125.326H48.016C42.3109 125.326 37.2432 121.683 35.4267 116.274L23.9488 82.1C21.0729 73.5371 27.4 64.6634 36.4328 64.5917L37.485 64.5834C43.3265 64.537 48.5123 68.3132 50.2615 73.8868L51.0754 76.4802C53.5425 73.1149 57.4987 71.0528 61.7858 71.0528H62.1453C66.4239 71.0528 70.3757 73.1071 72.8447 76.4653L73.6528 73.9121C75.4001 68.3911 80.5234 64.6389 86.3142 64.6389H87.3398C92.1619 64.6389 96.2281 67.1511 98.5483 70.7957C100.322 69.2777 102.264 67.9929 104.36 66.9477C100.305 62.4425 99.7585 55.4658 103.654 50.3107C108.168 44.3356 116.768 43.363 122.503 48.1789L129.668 54.1957C133.657 57.5457 134.987 62.9744 133.25 67.6789C134.488 68.4186 135.665 69.2481 136.776 70.1668C139.137 66.8762 142.987 64.6389 147.559 64.6389H149.528C154.869 64.6389 159.691 67.8389 161.765 72.7609L164.88 80.1494L167.307 73.4158C169.205 68.1493 174.202 64.6389 179.8 64.6389H181.868C186.653 64.6389 190.66 67.0961 192.986 70.6549C194.166 69.6609 195.419 68.7688 196.741 67.9807C194.83 63.1968 196.145 57.5933 200.242 54.1788L207.435 48.185C213.142 43.4294 221.661 44.386 226.17 50.2886C230.029 55.3393 229.591 62.1743 225.734 66.695C227.398 67.5362 228.964 68.5264 230.422 69.664C229.525 67.9772 229.017 66.0524 229.017 64.0088C229.017 57.3468 234.417 51.9462 241.079 51.9462H257.929C260.196 51.9462 262.327 52.5315 264.178 53.5593C264.833 52.4126 265.648 51.3394 266.616 50.3592C269.527 47.3569 273.345 45.7217 277.559 45.7217C281.741 45.7217 285.533 47.3323 288.435 50.2915C291.394 53.1938 293.004 56.9852 293.004 61.1672C293.004 65.381 291.369 69.1981 288.368 72.1089C287.98 72.4922 287.578 72.8514 287.162 73.186C287.484 73.6314 287.775 74.0957 288.035 74.5733C293.317 70.4953 299.533 68.3736 306.417 68.3736C311.849 68.3736 317.182 69.5724 321.688 72.7441C322.489 73.2987 323.235 73.899 323.922 74.5416C324.826 72.3215 326.219 70.313 328.055 68.5956L328.107 68.5472L328.159 68.4997C331.53 65.4453 335.699 63.827 340.259 63.827C345.081 63.827 349.221 65.8709 352.316 69.1797L352.367 69.2341L352.417 69.2893C355.129 72.2876 356.273 75.9556 356.273 79.5972C356.273 79.9236 356.263 80.2477 356.245 80.5691C358.76 81.842 360.933 83.0698 362.574 84.236L362.631 84.2762L362.687 84.3174C368.643 88.6901 372.754 94.8425 372.754 102.655C372.754 109.676 369.814 115.735 364.249 120.043C359.031 124.083 352.769 125.814 346.105 125.814C345.897 125.814 345.689 125.811 345.482 125.807C344.396 127.885 342.803 129.043 342.406 129.332L342.397 129.338C341.243 130.178 340.027 130.728 339.182 131.074L339.027 131.138L338.869 131.196C335.634 132.379 332.263 132.958 328.811 132.958C324.101 132.958 319.915 131.204 316.405 128.529L316.382 128.512L316.36 128.495C314.824 127.309 313.498 125.982 312.39 124.532C309.314 125.385 306.152 125.814 302.926 125.814C297.99 125.814 293.307 124.77 289.206 122.453C285.736 124.704 281.744 125.895 277.397 125.895C272.436 125.895 267.028 124.673 262.949 120.594L262.9 120.545L262.852 120.496C259.284 116.816 257.729 112.174 257.729 107.364C257.729 106.498 257.769 105.627 257.841 104.753L257.854 104.607L258.456 99.4359H240.698C240.489 99.4359 240.28 99.4308 240.073 99.4206C239.232 101.036 238.049 102.443 236.622 103.549C239.495 108.676 239.141 116.371 232.675 120.536C231.775 121.115 230.845 121.651 229.887 122.143L229.842 122.167L229.796 122.189C227.387 123.394 224.858 124.339 222.226 125.032C219.471 125.757 216.676 126.138 213.859 126.138C208.075 126.138 202.583 124.908 197.629 122.199L197.603 122.185L197.577 122.17C192.838 119.537 188.993 115.874 186.211 111.238L186.166 111.163L186.123 111.088C185.35 109.741 184.694 108.353 184.15 106.928L178.805 119.731L172.611 135.559C170.619 140.65 165.711 144 160.244 144H158.422C149.33 144 143.212 134.689 146.821 126.343L150.696 117.383L143.871 102.158C143.403 102.662 142.894 103.127 142.35 103.549C145.223 108.676 144.869 116.371 138.403 120.536C137.503 121.115 136.573 121.651 135.615 122.143L135.57 122.167L135.524 122.189C133.115 123.394 130.586 124.339 127.954 125.032C125.2 125.757 122.404 126.138 119.587 126.138C113.803 126.138 108.311 124.908 103.358 122.199L103.331 122.185Z" fill="white"/>
</g>
<g filter="url(#filter1_dd_198_10897)">
<path d="M103.331 117.07L103.305 117.056C98.5658 114.423 94.7207 110.759 91.9394 106.123L91.8945 106.049L91.851 105.973C91.4802 105.327 91.1362 104.671 90.8186 104.006L88.3952 111.181C86.5722 116.578 81.51 120.212 75.8131 120.212H74.6351C69.3171 120.212 64.5118 117.039 62.4225 112.149L61.8326 110.768L61.353 111.944C59.3151 116.944 54.4537 120.212 49.0551 120.212H48.016C42.3109 120.212 37.2432 116.568 35.4267 111.16L23.9488 76.9853C21.0729 68.4223 27.4 59.5487 36.4328 59.477L37.485 59.4686C43.3265 59.4223 48.5123 63.1985 50.2615 68.7721L51.0754 71.3654C53.5425 68.0002 57.4987 65.9381 61.7858 65.9381H62.1453C66.4239 65.9381 70.3757 67.9924 72.8447 71.3505L73.6528 68.7973C75.4001 63.2764 80.5234 59.5241 86.3142 59.5241H87.3398C92.1619 59.5241 96.2281 62.0363 98.5483 65.681C100.322 64.163 102.264 62.8782 104.36 61.8329C100.305 57.3278 99.7585 50.3511 103.654 45.1959C108.168 39.2209 116.768 38.2483 122.503 43.0641L129.668 49.081C133.657 52.4309 134.987 57.8596 133.25 62.5642C134.488 63.3038 135.665 64.1333 136.776 65.052C139.137 61.7615 142.987 59.5241 147.559 59.5241H149.528C154.869 59.5241 159.691 62.7242 161.765 67.6462L164.88 75.0346L167.307 68.301C169.205 63.0346 174.202 59.5241 179.8 59.5241H181.868C186.653 59.5241 190.66 61.9814 192.986 65.5402C194.166 64.5461 195.419 63.6541 196.741 62.8659C194.83 58.0821 196.145 52.4786 200.242 49.064L207.435 43.0702C213.142 38.3147 221.661 39.2712 226.17 45.1739C230.029 50.2245 229.591 57.0596 225.734 61.5802C227.398 62.4215 228.964 63.4117 230.422 64.5492C229.525 62.8625 229.017 60.9376 229.017 58.894C229.017 52.2321 234.417 46.8315 241.079 46.8315H257.929C260.196 46.8315 262.327 47.4168 264.178 48.4445C264.833 47.2978 265.648 46.2247 266.616 45.2444C269.527 42.2422 273.345 40.6069 277.559 40.6069C281.741 40.6069 285.533 42.2176 288.435 45.1768C291.394 48.0791 293.004 51.8704 293.004 56.0524C293.004 60.2662 291.369 64.0834 288.368 66.9941C287.98 67.3775 287.578 67.7366 287.162 68.0713C287.484 68.5166 287.775 68.981 288.035 69.4586C293.317 65.3805 299.533 63.2588 306.417 63.2588C311.849 63.2588 317.182 64.4576 321.688 67.6293C322.489 68.184 323.235 68.7842 323.922 69.4268C324.826 67.2068 326.219 65.1982 328.055 63.4809L328.107 63.4325L328.159 63.385C331.53 60.3305 335.699 58.7122 340.259 58.7122C345.081 58.7122 349.221 60.7562 352.316 64.0649L352.367 64.1193L352.417 64.1745C355.129 67.1728 356.273 70.8408 356.273 74.4824C356.273 74.8089 356.263 75.1329 356.245 75.4543C358.76 76.7272 360.933 77.955 362.574 79.1212L362.631 79.1615L362.687 79.2027C368.643 83.5754 372.754 89.7277 372.754 97.5403C372.754 104.561 369.814 110.62 364.249 114.929C359.031 118.969 352.769 120.699 346.105 120.699C345.897 120.699 345.689 120.697 345.482 120.692C344.396 122.771 342.803 123.929 342.406 124.217L342.397 124.224C341.243 125.063 340.027 125.614 339.182 125.959L339.027 126.023L338.869 126.081C335.634 127.264 332.263 127.843 328.811 127.843C324.101 127.843 319.915 126.089 316.405 123.414L316.382 123.397L316.36 123.38C314.824 122.194 313.498 120.867 312.39 119.417C309.314 120.27 306.152 120.699 302.926 120.699C297.99 120.699 293.307 119.655 289.206 117.338C285.736 119.59 281.744 120.78 277.397 120.78C272.436 120.78 267.028 119.558 262.949 115.479L262.9 115.431L262.852 115.381C259.284 111.702 257.729 107.059 257.729 102.249C257.729 101.384 257.769 100.512 257.841 99.6387L257.854 99.4922L258.456 94.3212H240.698C240.489 94.3212 240.28 94.316 240.073 94.3058C239.232 95.9211 238.049 97.3286 236.622 98.434C239.495 103.561 239.141 111.256 232.675 115.421C231.775 116.001 230.845 116.536 229.887 117.029L229.842 117.052L229.796 117.075C227.387 118.279 224.858 119.224 222.226 119.917C219.471 120.642 216.676 121.024 213.859 121.024C208.075 121.024 202.583 119.793 197.629 117.084L197.603 117.07L197.577 117.056C192.838 114.423 188.993 110.759 186.211 106.123L186.166 106.049L186.123 105.973C185.35 104.626 184.694 103.238 184.15 101.813L178.805 114.616L172.611 130.444C170.619 135.535 165.711 138.885 160.244 138.885H158.422C149.33 138.885 143.212 129.574 146.821 121.229L150.696 112.268L143.871 97.0429C143.403 97.547 142.894 98.0125 142.35 98.434C145.223 103.561 144.869 111.256 138.403 115.421C137.503 116.001 136.573 116.536 135.615 117.029L135.57 117.052L135.524 117.075C133.115 118.279 130.586 119.224 127.954 119.917C125.2 120.642 122.404 121.024 119.587 121.024C113.803 121.024 108.311 119.793 103.358 117.084L103.331 117.07Z" fill="white"/>
</g>
<g filter="url(#filter2_i_198_10897)">
<path d="M48.0165 109.556C46.1563 109.556 44.5039 108.368 43.9117 106.605L32.4338 72.4306C31.4961 69.6386 33.5591 66.7453 36.5042 66.7219L37.5565 66.7136C39.4611 66.6985 41.1519 67.9297 41.7223 69.747L50.0634 96.3257C50.1963 96.749 49.8558 97.1712 49.414 97.131C48.9918 97.0926 48.731 96.6523 48.9002 96.2637L57.8161 75.7849C58.504 74.205 60.0631 73.1833 61.7863 73.1833H62.1457C63.8554 73.1833 65.4051 74.1893 66.1009 75.7511L75.1873 96.1433C75.3882 96.5943 75.0937 97.1106 74.6033 97.1672C74.0766 97.228 73.6624 96.7257 73.8224 96.2203L82.1864 69.7929C82.7561 67.9928 84.4265 66.7693 86.3147 66.7693H87.3402C90.303 66.7693 92.3907 69.6781 91.4426 72.4851L79.916 106.612C79.3216 108.372 77.671 109.556 75.8135 109.556H74.6356C72.9016 109.556 71.3348 108.522 70.6536 106.927L61.1581 84.7008C61.0048 84.342 61.2938 83.9506 61.6819 83.9915C62.0205 84.0271 62.2304 84.3776 62.1018 84.693L53.0653 106.861C52.4008 108.491 50.8158 109.556 49.0555 109.556H48.0165Z" fill="black"/>
<path d="M119.587 110.368C115.095 110.368 111.116 109.421 107.652 107.527C104.242 105.632 101.563 103.061 99.6146 99.8135C97.7202 96.5118 96.773 92.75 96.773 88.5281C96.773 85.1723 97.3143 82.1142 98.3968 79.3537C99.4793 76.5933 100.968 74.2117 102.862 72.209C104.811 70.1522 107.111 68.5826 109.763 67.5C112.47 66.3634 115.42 65.7951 118.613 65.7951C121.428 65.7951 124.053 66.3363 126.488 67.4188C128.924 68.5014 131.035 69.9898 132.821 71.8843C134.607 73.7246 135.961 75.9438 136.881 78.5418C137.855 81.0858 138.315 83.8733 138.261 86.9044C138.216 88.8455 136.629 90.3955 134.688 90.3955H106.114C104.577 90.3955 103.23 89.368 102.825 87.8861C102.23 85.7161 103.864 83.5756 106.114 83.5756H128.91C129.254 83.5756 129.431 83.986 129.195 84.2361C128.952 84.4946 128.518 84.3224 128.518 83.9675V83.1696C128.356 81.4917 127.814 80.0303 126.894 78.7854C125.974 77.4864 124.783 76.485 123.322 75.7814C121.915 75.0236 120.345 74.6447 118.613 74.6447C115.961 74.6447 113.715 75.1589 111.874 76.1873C110.088 77.2157 108.735 78.7042 107.815 80.6528C106.895 82.5472 106.435 84.9287 106.435 87.7974C106.435 90.5579 107.003 92.9665 108.14 95.0233C109.33 97.0801 110.981 98.6769 113.092 99.8135C115.257 100.896 117.774 101.437 120.643 101.437C122.645 101.437 124.486 101.113 126.164 100.463C126.691 100.259 127.232 100.004 127.786 99.6979C129.997 98.478 132.871 98.7378 134.343 100.789C135.607 102.551 135.38 105.017 133.557 106.192C132.909 106.609 132.231 107 131.522 107.364C129.682 108.284 127.733 109.015 125.676 109.556C123.62 110.098 121.59 110.368 119.587 110.368ZM124.52 58.4162C123.612 59.7896 121.806 60.2423 120.357 59.4595L112.127 55.0104C109.901 53.8075 109.27 50.9048 110.795 48.8864C112.221 46.9996 114.936 46.6924 116.747 48.2132L123.912 54.23C125.149 55.2684 125.41 57.0691 124.52 58.4162Z" fill="black"/>
<path d="M158.423 128.23C155.769 128.23 153.983 125.512 155.036 123.076L160.598 110.215C160.898 109.522 161.932 109.729 161.941 110.485C161.95 111.244 160.913 111.473 160.602 110.78L143.608 72.8707C142.324 70.0059 144.42 66.7693 147.559 66.7693H149.528C151.27 66.7693 152.842 67.8127 153.518 69.4176L164.174 94.6986C164.553 95.4022 164.932 96.3494 165.311 97.5402C165.618 98.4621 165.89 99.3839 166.126 100.306C166.219 100.669 166.01 101.038 165.653 101.152C165.085 101.334 164.557 100.783 164.766 100.224C164.993 99.6173 165.229 98.9933 165.473 98.3521C165.906 97.1613 166.312 95.9435 166.691 94.6986L175.727 69.6311C176.346 67.9139 177.975 66.7693 179.801 66.7693H181.869C184.96 66.7693 187.056 69.915 185.865 72.7676L170.507 109.556L164.277 125.478C163.627 127.138 162.027 128.23 160.245 128.23H158.423Z" fill="black"/>
<path d="M213.859 110.368C209.367 110.368 205.388 109.421 201.924 107.527C198.514 105.632 195.835 103.061 193.887 99.8135C191.992 96.5118 191.045 92.75 191.045 88.5281C191.045 85.1723 191.586 82.1142 192.669 79.3537C193.751 76.5933 195.24 74.2117 197.134 72.209C199.083 70.1522 201.383 68.5826 204.035 67.5C206.742 66.3634 209.691 65.7951 212.885 65.7951C215.7 65.7951 218.325 66.3363 220.76 67.4188C223.196 68.5014 225.307 69.9898 227.093 71.8843C228.879 73.7246 230.232 75.9438 231.153 78.5418C232.127 81.0858 232.587 83.8733 232.533 86.9044C232.488 88.8455 230.901 90.3955 228.96 90.3955H200.385C198.849 90.3955 197.502 89.368 197.097 87.8861C196.502 85.7161 198.136 83.5756 200.385 83.5756H223.182C223.525 83.5756 223.703 83.986 223.467 84.2361C223.224 84.4946 222.79 84.3224 222.79 83.9675V83.1696C222.628 81.4917 222.086 80.0303 221.166 78.7854C220.246 77.4864 219.055 76.485 217.594 75.7814C216.187 75.0236 214.617 74.6447 212.885 74.6447C210.233 74.6447 207.986 75.1589 206.146 76.1873C204.36 77.2157 203.007 78.7042 202.087 80.6528C201.167 82.5472 200.706 84.9287 200.706 87.7974C200.706 90.5579 201.275 92.9665 202.411 95.0233C203.602 97.0801 205.253 98.6769 207.364 99.8135C209.529 100.896 212.046 101.437 214.915 101.437C216.917 101.437 218.758 101.113 220.436 100.463C220.963 100.259 221.504 100.004 222.058 99.6979C224.269 98.478 227.143 98.7378 228.615 100.789C229.879 102.551 229.652 105.017 227.829 106.192C227.181 106.609 226.503 107 225.794 107.364C223.954 108.284 222.005 109.015 219.948 109.556C217.892 110.098 215.862 110.368 213.859 110.368ZM209.512 59.4621C208.066 60.2434 206.263 59.7915 205.357 58.4208C204.466 57.0724 204.731 55.2695 205.973 54.2347L213.165 48.241C214.96 46.745 217.64 47.0459 219.059 48.9027C220.592 50.9087 219.969 53.8096 217.748 55.01L209.512 59.4621Z" fill="black"/>
<path d="M262.415 80.5986C262.415 82.2926 261.041 83.6658 259.347 83.6658H240.699C238.742 83.6658 237.156 82.0795 237.156 80.1227C237.156 79.3211 237.427 78.5432 237.927 77.916L246.356 67.3283C248.614 64.4915 246.594 60.3012 242.968 60.3012H241.08C239.361 60.3012 237.967 58.9078 237.967 57.189C237.967 55.4701 239.361 54.0767 241.08 54.0767H257.929C260.107 54.0767 261.873 55.8426 261.873 58.0209C261.873 58.9133 261.571 59.7792 261.015 60.4774L253.033 70.5046C250.775 73.3415 252.795 77.5315 256.421 77.5315H259.347C261.041 77.5315 262.415 78.9047 262.415 80.5986Z" fill="black"/>
<path d="M273.013 49.8007C274.258 48.5017 275.773 47.8521 277.559 47.8521C279.346 47.8521 280.861 48.5017 282.106 49.8007C283.405 51.0456 284.055 52.5611 284.055 54.3473C284.055 56.1335 283.405 57.649 282.106 58.8939C280.861 60.1388 279.346 60.7613 277.559 60.7613C275.773 60.7613 274.258 60.1388 273.013 58.8939C271.768 57.649 271.145 56.1335 271.145 54.3473C271.145 52.5611 271.768 51.0456 273.013 49.8007ZM269.585 74.4412C269.65 73.8787 269.803 73.3132 270.188 72.8974C270.776 72.2613 271.637 71.7612 272.769 71.3971C274.285 70.8559 275.773 70.5852 277.235 70.5852C277.393 70.5852 277.55 70.5873 277.704 70.5915C279.775 70.6471 281.02 72.6416 280.754 74.6959C279.217 86.5665 278.335 93.4383 278.106 95.3113C278.063 95.6627 278 96.0084 277.924 96.3542C277.735 97.2149 277.641 97.962 277.641 98.5957C277.641 99.2993 277.695 99.9218 277.803 100.463C278.019 101.87 278.994 102.574 280.726 102.574C282.512 102.574 284.136 101.437 285.597 99.164C286.66 97.5312 287.537 95.7519 288.227 93.8261C288.679 92.5668 289.991 92.167 290.793 93.2371C291.182 93.7552 291.496 94.2113 291.736 94.6054C292.141 95.2708 292.162 96.074 291.944 96.8218C290.835 100.625 289.098 103.733 286.734 106.146C284.136 108.798 281.023 110.125 277.397 110.125C273.77 110.125 271.064 109.232 269.278 107.445C267.546 105.659 266.68 103.359 266.68 100.544C266.68 99.9488 266.707 99.3264 266.761 98.6769L269.585 74.4412Z" fill="black"/>
<path d="M301.327 93.8649C301.002 92.4976 301.881 91.1563 303.203 90.6798C305.34 89.9094 307.007 88.7863 308.204 87.3103C309.882 85.3076 310.721 83.3861 310.721 81.5458C310.721 79.6514 310.207 78.3794 309.178 77.7299C308.204 77.0263 307.121 76.6745 305.931 76.6745C303.387 76.6745 301.14 78.1088 299.192 80.9775C297.298 83.7921 296.35 87.175 296.35 91.1262C296.35 95.0233 297.27 97.9461 299.111 99.8947C301.005 101.789 303.333 102.736 306.093 102.736C310.153 102.736 314.05 101.329 317.784 98.5145C320.554 96.4269 322.937 93.8629 324.933 90.8225C325.994 89.2064 328.214 88.7704 329.297 90.372C329.814 91.1369 329.915 92.1992 329.492 93.0195C327.632 96.6206 324.677 100.157 320.626 103.629C318.353 105.524 315.646 107.066 312.507 108.257C309.422 109.448 306.228 110.043 302.927 110.043C297.514 110.043 293.238 108.393 290.099 105.091C286.743 101.518 285.065 96.9448 285.065 91.3698C285.065 85.7948 287.149 80.9234 291.317 76.7557C295.538 72.5879 300.572 70.5041 306.418 70.5041C310.586 70.5041 313.968 71.4242 316.567 73.2645C319.165 75.0507 320.491 77.4864 320.545 80.5716C320.545 84.7393 318.867 88.1222 315.511 90.7203C312.662 92.962 308.886 94.6195 304.184 95.6926C302.893 95.9871 301.632 95.1531 301.327 93.8649Z" fill="black"/>
<path d="M357.39 84.7122C361.666 87.8516 363.804 91.5592 363.804 95.8352C363.804 100.111 362.126 103.548 358.771 106.146C355.415 108.744 351.193 110.043 346.105 110.043C342.803 110.043 340.043 109.232 337.824 107.608C335.659 105.93 334.576 103.873 334.576 101.437C334.576 99.0016 335.388 97.0801 337.012 95.6728C337.427 95.2989 337.869 94.9621 338.338 94.6626C339.977 93.6151 341.396 95.7573 341.396 97.7026C341.396 99.164 341.91 100.355 342.939 101.275C343.967 102.195 345.266 102.655 346.836 102.655C348.405 102.655 349.704 102.087 350.733 100.95C351.761 99.7594 352.275 98.4062 352.275 96.8907C352.275 94.4009 351.112 92.1817 348.784 90.2331C347.377 89.0965 345.861 88.041 344.238 87.0667C342.803 86.1582 341.96 85.6298 341.708 85.4817C341.663 85.4549 341.615 85.4244 341.572 85.3934C341.245 85.1564 340.806 85.2521 340.541 85.5568C339.6 86.6363 338.343 88.0327 336.768 89.746C334.928 91.6945 333.466 93.2642 332.384 94.455C329.353 97.7567 327.648 100.517 327.269 102.736C327.161 103.169 327.107 104.008 327.107 105.253C327.107 106.444 327.458 107.689 328.162 108.988C328.92 110.287 329.813 111.261 330.841 111.911C331.87 112.56 332.871 113.074 333.845 113.453C334.874 113.886 335.74 114.184 336.443 114.346C337.201 114.509 337.58 114.617 337.58 114.671C337.58 115.05 336.985 115.483 335.794 115.97C333.575 116.782 331.247 117.188 328.812 117.188C326.43 117.188 324.103 116.322 321.829 114.59C318.744 112.208 317.201 109.042 317.201 105.091C317.201 102.655 317.824 100.247 319.069 97.865C320.967 94.2532 325.044 89.4927 331.3 83.5833C333.103 81.8802 332.99 79.0601 332.132 76.7333C331.813 75.8692 331.653 74.9836 331.653 74.0764C331.653 71.8031 332.492 69.8816 334.17 68.3119C335.902 66.7423 337.932 65.9574 340.259 65.9574C342.37 65.9574 344.211 66.7964 345.78 68.4743C346.809 69.611 347.323 71.0453 347.323 72.7774C347.323 73.2709 347.277 73.782 347.184 74.3107C346.755 76.7701 347.548 79.4785 349.8 80.5553C353.345 82.2496 355.875 83.6352 357.39 84.7122ZM337.905 72.6962C337.905 74.6927 341.595 74.6614 341.719 72.6687C341.72 72.6505 341.721 72.6326 341.721 72.615C341.721 71.2618 341.125 70.5311 339.935 70.4229C338.581 70.4229 337.905 71.1806 337.905 72.6962Z" fill="black"/>
</g>
<g filter="url(#filter3_i_198_10897)">
<path d="M119.586 110.369C115.094 110.369 111.116 109.421 107.652 107.527C104.242 105.633 101.562 103.062 99.6137 99.814C97.7193 96.5123 96.7721 92.7505 96.7721 88.5287C96.7721 85.1728 97.3134 82.1147 98.3959 79.3543C99.4784 76.5938 100.967 74.2122 102.861 72.2096C104.81 70.1528 107.11 68.5831 109.762 67.5006C112.469 66.3639 115.419 65.7956 118.612 65.7956C121.427 65.7956 124.052 66.3369 126.487 67.4194C128.923 68.5019 131.034 69.9904 132.82 71.8848C134.606 73.7251 135.96 75.9443 136.88 78.5424C137.854 81.0863 138.314 83.8738 138.26 86.9049L138.237 87.8983C138.205 89.287 137.07 90.396 135.68 90.396H105.462C104.31 90.396 103.3 89.6255 102.996 88.5141L102.529 86.8087C102.083 85.1813 103.308 83.5761 104.995 83.5761H128.909C129.253 83.5761 129.43 83.9865 129.195 84.2367V84.2367C128.951 84.4951 128.517 84.323 128.517 83.968V83.1702C128.355 81.4922 127.814 80.0308 126.893 78.7859C125.973 77.4869 124.783 76.4856 123.321 75.7819C121.914 75.0241 120.344 74.6453 118.612 74.6453C115.96 74.6453 113.714 75.1595 111.873 76.1879C110.087 77.2163 108.734 78.7047 107.814 80.6533C106.894 82.5477 106.434 84.9293 106.434 87.798C106.434 90.5584 107.002 92.967 108.139 95.0239C109.329 97.0807 110.98 98.6774 113.091 99.814C115.256 100.897 117.773 101.438 120.642 101.438C122.645 101.438 124.485 101.113 126.163 100.464C127.191 100.066 128.27 99.4744 129.4 98.6901C130.633 97.834 132.356 98.0225 133.231 99.2424L135.239 102.04C135.991 103.087 135.854 104.545 134.82 105.316C133.805 106.073 132.705 106.756 131.521 107.365C129.681 108.285 127.732 109.016 125.676 109.557C123.619 110.098 121.589 110.369 119.586 110.369ZM124.206 58.8907C123.475 59.9958 122.022 60.3601 120.856 59.7302L110.514 54.1398C109.136 53.3951 108.746 51.5981 109.69 50.3486L111.793 47.5651C112.675 46.3971 114.357 46.2069 115.478 47.1484L124.335 54.5865C125.33 55.4221 125.541 56.871 124.824 57.955L124.206 58.8907Z" fill="#890DD6"/>
<path d="M156.699 128.23C154.859 128.23 153.622 126.347 154.352 124.658L160.597 110.216C160.897 109.522 161.931 109.73 161.94 110.485V110.485C161.949 111.245 160.912 111.474 160.601 110.78L142.487 70.3731C141.729 68.6813 142.967 66.7699 144.821 66.7699H150.704C151.732 66.7699 152.661 67.3861 153.06 68.3338L164.173 94.6991C164.552 95.4027 164.931 96.3499 165.31 97.5407C165.617 98.4626 165.889 99.3845 166.125 100.306C166.218 100.669 166.009 101.039 165.652 101.153V101.153C165.084 101.335 164.556 100.783 164.765 100.225C164.993 99.6178 165.228 98.9938 165.472 98.3526C165.905 97.1618 166.311 95.944 166.69 94.6991L176.149 68.4599C176.514 67.4458 177.476 66.7699 178.554 66.7699H184.529C186.355 66.7699 187.592 68.6276 186.889 70.3122L170.506 109.557L163.835 126.605C163.452 127.585 162.506 128.23 161.454 128.23H156.699Z" fill="#890DD6"/>
<path d="M213.858 110.369C209.366 110.369 205.388 109.421 201.923 107.527C198.513 105.633 195.834 103.062 193.886 99.814C191.991 96.5123 191.044 92.7505 191.044 88.5287C191.044 85.1728 191.585 82.1147 192.668 79.3543C193.75 76.5938 195.239 74.2122 197.133 72.2096C199.082 70.1528 201.382 68.5831 204.034 67.5006C206.741 66.3639 209.691 65.7956 212.884 65.7956C215.699 65.7956 218.324 66.3369 220.759 67.4194C223.195 68.5019 225.306 69.9904 227.092 71.8848C228.878 73.7251 230.232 75.9443 231.152 78.5424C232.126 81.0863 232.586 83.8738 232.532 86.9049L232.509 87.8983C232.476 89.287 231.341 90.396 229.952 90.396H199.734C198.582 90.396 197.572 89.6255 197.267 88.5141L196.801 86.8087C196.355 85.1813 197.58 83.5761 199.267 83.5761H223.181C223.525 83.5761 223.702 83.9865 223.466 84.2367V84.2367C223.223 84.4951 222.789 84.323 222.789 83.968V83.1702C222.627 81.4922 222.086 80.0308 221.165 78.7859C220.245 77.4869 219.054 76.4856 217.593 75.7819C216.186 75.0241 214.616 74.6453 212.884 74.6453C210.232 74.6453 207.986 75.1595 206.145 76.1879C204.359 77.2163 203.006 78.7047 202.086 80.6533C201.166 82.5477 200.706 84.9293 200.706 87.798C200.706 90.5584 201.274 92.967 202.411 95.0239C203.601 97.0807 205.252 98.6774 207.363 99.814C209.528 100.897 212.045 101.438 214.914 101.438C216.916 101.438 218.757 101.113 220.435 100.464C221.463 100.066 222.542 99.4744 223.672 98.6901C224.905 97.834 226.628 98.0225 227.503 99.2424L229.511 102.04C230.263 103.087 230.126 104.545 229.092 105.316C228.077 106.073 226.977 106.756 225.793 107.365C223.953 108.285 222.004 109.016 219.948 109.557C217.891 110.098 215.861 110.369 213.858 110.369ZM209.016 59.7302C207.851 60.3601 206.397 59.9958 205.667 58.8907L205.053 57.9622C204.334 56.8752 204.548 55.4217 205.549 54.5876L214.407 47.2061C215.524 46.2747 217.193 46.4621 218.076 47.618L220.16 50.3454C221.114 51.5942 220.726 53.4002 219.344 54.1475L209.016 59.7302Z" fill="#890DD6"/>
</g>
<defs>
<filter id="filter0_dd_198_10897" x="7.26499" y="30.4107" width="381.472" height="130.851" filterUnits="userSpaceOnUse" color-interpolation-filters="sRGB">
<feFlood flood-opacity="0" result="BackgroundImageFix"/>
<feColorMatrix in="SourceAlpha" type="matrix" values="0 0 0 0 0 0 0 0 0 0 0 0 0 0 0 0 0 0 127 0" result="hardAlpha"/>
<feOffset dy="1.27862"/>
<feGaussianBlur stdDeviation="7.99135"/>
<feComposite in2="hardAlpha" operator="out"/>
<feColorMatrix type="matrix" values="0 0 0 0 0 0 0 0 0 0 0 0 0 0 0 0 0 0 0.3 0"/>
<feBlend mode="normal" in2="BackgroundImageFix" result="effect1_dropShadow_198_10897"/>
<feColorMatrix in="SourceAlpha" type="matrix" values="0 0 0 0 0 0 0 0 0 0 0 0 0 0 0 0 0 0 127 0" result="hardAlpha"/>
<feOffset dx="2.55723" dy="2.13103"/>
<feGaussianBlur stdDeviation="0.799134"/>
<feComposite in2="hardAlpha" operator="out"/>
<feColorMatrix type="matrix" values="0 0 0 0 0 0 0 0 0 0 0 0 0 0 0 0 0 0 0.05 0"/>
<feBlend mode="normal" in2="effect1_dropShadow_198_10897" result="effect2_dropShadow_198_10897"/>
<feBlend mode="normal" in="SourceGraphic" in2="effect2_dropShadow_198_10897" result="shape"/>
</filter>
<filter id="filter1_dd_198_10897" x="7.26499" y="25.2959" width="381.472" height="130.851" filterUnits="userSpaceOnUse" color-interpolation-filters="sRGB">
<feFlood flood-opacity="0" result="BackgroundImageFix"/>
<feColorMatrix in="SourceAlpha" type="matrix" values="0 0 0 0 0 0 0 0 0 0 0 0 0 0 0 0 0 0 127 0" result="hardAlpha"/>
<feOffset dy="1.27862"/>
<feGaussianBlur stdDeviation="7.99135"/>
<feComposite in2="hardAlpha" operator="out"/>
<feColorMatrix type="matrix" values="0 0 0 0 0 0 0 0 0 0 0 0 0 0 0 0 0 0 0.3 0"/>
<feBlend mode="normal" in2="BackgroundImageFix" result="effect1_dropShadow_198_10897"/>
<feColorMatrix in="SourceAlpha" type="matrix" values="0 0 0 0 0 0 0 0 0 0 0 0 0 0 0 0 0 0 127 0" result="hardAlpha"/>
<feOffset dx="2.55723" dy="2.13103"/>
<feGaussianBlur stdDeviation="0.799134"/>
<feComposite in2="hardAlpha" operator="out"/>
<feColorMatrix type="matrix" values="0 0 0 0 0 0 0 0 0 0 0 0 0 0 0 0 0 0 0.05 0"/>
<feBlend mode="normal" in2="effect1_dropShadow_198_10897" result="effect2_dropShadow_198_10897"/>
<feBlend mode="normal" in="SourceGraphic" in2="effect2_dropShadow_198_10897" result="shape"/>
</filter>
<filter id="filter2_i_198_10897" x="32.2052" y="47.2456" width="331.599" height="80.9844" filterUnits="userSpaceOnUse" color-interpolation-filters="sRGB">
<feFlood flood-opacity="0" result="BackgroundImageFix"/>
<feBlend mode="normal" in="SourceGraphic" in2="BackgroundImageFix" result="shape"/>
<feColorMatrix in="SourceAlpha" type="matrix" values="0 0 0 0 0 0 0 0 0 0 0 0 0 0 0 0 0 0 127 0" result="hardAlpha"/>
<feOffset dx="1.70482" dy="1.59827"/>
<feComposite in2="hardAlpha" operator="arithmetic" k2="-1" k3="1"/>
<feColorMatrix type="matrix" values="0 0 0 0 1 0 0 0 0 1 0 0 0 0 1 0 0 0 0.2 0"/>
<feBlend mode="normal" in2="shape" result="effect1_innerShadow_198_10897"/>
</filter>
<filter id="filter3_i_198_10897" x="96.7721" y="46.5493" width="135.764" height="81.6812" filterUnits="userSpaceOnUse" color-interpolation-filters="sRGB">
<feFlood flood-opacity="0" result="BackgroundImageFix"/>
<feBlend mode="normal" in="SourceGraphic" in2="BackgroundImageFix" result="shape"/>
<feColorMatrix in="SourceAlpha" type="matrix" values="0 0 0 0 0 0 0 0 0 0 0 0 0 0 0 0 0 0 127 0" result="hardAlpha"/>
<feOffset dx="1.70482" dy="1.59827"/>
<feComposite in2="hardAlpha" operator="arithmetic" k2="-1" k3="1"/>
<feColorMatrix type="matrix" values="0 0 0 0 1 0 0 0 0 1 0 0 0 0 1 0 0 0 0.2 0"/>
<feBlend mode="normal" in2="shape" result="effect1_innerShadow_198_10897"/>
</filter>
</defs>
</svg>
